<svg width="24" height="24" viewBox="0 0 36 36" fill="none" xmlns="http://www.w3.org/2000/svg">
<g id="_&#235;&#160;&#136;&#236;&#157;&#180;&#236;&#150;&#180;_1">
<path id="Vector" d="M32.5922 16.7597L19.9542 4.10045C19.9043 4.03416 19.8488 3.97 19.7891 3.91013C19.0768 3.19662 17.9211 3.19662 17.2088 3.91013L4.40923 16.7297C3.69692 17.4432 3.69692 18.6008 4.40923 19.3143C5.12155 20.0278 6.27719 20.0278 6.9895 19.3143L7.55309 18.7498V30.7318C7.55309 31.7775 8.39918 32.625 9.4431 32.625H13.1214C13.2786 32.6136 13.8259 32.5559 14.2969 32.1104C14.8178 31.6178 14.8783 30.9984 14.8883 30.8544C14.8883 29.6127 14.8883 28.3711 14.8883 27.1294C14.8883 27.0032 14.9011 26.3325 15.4419 25.7907C15.7842 25.4479 16.2567 25.2362 16.7783 25.2362H20.2388C21.2827 25.2362 22.1288 26.0837 22.1288 27.1294V30.7596C22.1345 30.9057 22.1765 31.5416 22.6967 32.0626C23.1749 32.5409 23.7463 32.6107 23.9035 32.6243C25.1161 32.6243 26.328 32.6243 27.5405 32.6243C27.6665 32.6243 28.3361 32.6115 28.8769 32.0697C29.2192 31.7269 29.4305 31.2536 29.4305 30.7311V18.7619L30.0105 19.3428C30.7228 20.0563 31.8785 20.0563 32.5908 19.3428C33.3031 18.6293 33.3031 17.4717 32.5908 16.7582L32.5922 16.7597Z" fill="#C6C6CF"/>
</g>
</svg>
