<?xml version="1.0" standalone="no"?>
<!DOCTYPE svg PUBLIC "-//W3C//DTD SVG 20010904//EN"
 "http://www.w3.org/TR/2001/REC-SVG-20010904/DTD/svg10.dtd">
<svg version="1.0" xmlns="http://www.w3.org/2000/svg"
 width="16.000000pt" height="16.000000pt" viewBox="0 0 16.000000 16.000000"
 preserveAspectRatio="xMidYMid meet">

<g transform="translate(0.000000,16.000000) scale(0.100000,-0.100000)"
fill="#000000" stroke="none">
<path d="M60 126 c-6 -8 -17 -13 -25 -10 -7 3 -16 1 -20 -5 -3 -7 0 -8 9 -5
19 7 22 -12 4 -19 -10 -4 -10 -8 2 -16 8 -5 18 -7 23 -4 5 3 4 8 -2 12 -16 10
17 54 36 47 8 -3 11 -1 8 4 -9 14 -21 12 -35 -4z"/>
<path d="M115 110 c-3 -5 -3 -14 0 -20 3 -5 1 -10 -5 -10 -6 0 -9 -4 -5 -10 3
-5 13 -6 21 -3 11 4 12 9 5 16 -16 16 -13 30 5 23 8 -3 12 -2 9 4 -8 13 -22
13 -30 0z"/>
<path d="M70 90 c0 -5 5 -10 10 -10 6 0 10 5 10 10 0 6 -4 10 -10 10 -5 0 -10
-4 -10 -10z"/>
<path d="M0 48 c0 -36 148 -34 157 2 4 13 3 13 -6 0 -7 -11 -28 -15 -71 -15
-43 0 -63 4 -70 15 -8 13 -10 13 -10 -2z"/>
</g>
</svg>
