<svg width="167" height="179" viewBox="0 0 167 179" fill="none" xmlns="http://www.w3.org/2000/svg">
    <path d="M113.654 13.0086C105.884 4.61968 95.0311 0 83.0527 0C71.0104 0 60.122 4.59173 52.3879 12.9287C44.57 21.3575 40.7609 32.8129 41.6553 45.1826C43.4281 69.5866 61.9986 89.4388 83.0527 89.4388C104.107 89.4388 122.645 69.5906 124.446 45.1906C125.352 32.9327 121.519 21.5013 113.654 13.0086Z" fill="black"/>
    <path d="M153.326 178.878H12.7793C10.9396 178.902 9.1178 178.515 7.44633 177.746C5.77485 176.978 4.29576 175.846 3.11667 174.434C0.521348 171.331 -0.524767 167.095 0.249838 162.811C3.61976 144.116 14.1368 128.413 30.667 117.388C45.3526 107.602 63.955 102.216 83.0526 102.216C102.15 102.216 120.753 107.606 135.438 117.388C151.968 128.409 162.485 144.112 165.855 162.807C166.63 167.091 165.584 171.327 162.989 174.43C161.81 175.843 160.331 176.975 158.659 177.745C156.988 178.514 155.166 178.901 153.326 178.878Z" fill="black"/>
</svg>
