<?xml version="1.0" standalone="no"?>
<!DOCTYPE svg PUBLIC "-//W3C//DTD SVG 20010904//EN"
 "http://www.w3.org/TR/2001/REC-SVG-20010904/DTD/svg10.dtd">
<svg version="1.0" xmlns="http://www.w3.org/2000/svg"
 width="256.000000pt" height="256.000000pt" viewBox="0 0 256.000000 256.000000"
 preserveAspectRatio="xMidYMid meet">

<g transform="translate(0.000000,256.000000) scale(0.100000,-0.100000)"
fill="#000000" stroke="none">
<path d="M174 2336 c-17 -8 -39 -24 -48 -37 -18 -26 -21 -81 -6 -108 16 -30
2159 -1955 2192 -1969 95 -41 181 85 113 166 l-25 30 25 53 25 54 0 727 c0
707 -1 729 -20 782 -27 72 -88 139 -158 173 l-57 28 -922 3 -921 2 -50 45
c-43 39 -89 66 -110 65 -4 -1 -21 -7 -38 -14z m2001 -320 c67 -29 65 0 65
-761 0 -377 -3 -685 -6 -685 -3 0 -55 44 -115 97 -90 81 -108 101 -101 118 19
53 3 93 -199 495 -204 405 -204 405 -249 428 -52 27 -105 24 -151 -9 -15 -11
-60 -71 -99 -134 l-72 -114 -134 121 c-123 111 -134 124 -134 156 0 82 -88
162 -163 148 -30 -6 -40 0 -112 65 -44 39 -81 75 -83 80 -2 5 303 9 757 9 636
0 767 -2 796 -14z"/>
<path d="M173 1855 c-67 -29 -64 4 -61 -686 l3 -624 23 -43 c35 -66 88 -119
150 -149 l57 -28 672 -3 c750 -3 720 -5 749 65 20 46 10 86 -28 118 l-30 25
-644 0 c-707 0 -698 -1 -728 59 -14 26 -16 103 -16 611 0 645 2 628 -65 656
-41 17 -42 17 -82 -1z"/>
<path d="M639 1077 c-53 -106 -100 -206 -103 -224 -10 -44 22 -113 65 -144 34
-24 36 -24 324 -27 160 -2 328 -2 374 0 l85 3 -305 274 c-167 151 -313 282
-324 292 -20 18 -22 16 -116 -174z"/>
</g>
</svg>
