<svg width="167" height="180" viewBox="0 0 167 180" fill="none" xmlns="http://www.w3.org/2000/svg">
    <path d="M152.263 13.8421H131.5V6.92105C131.5 5.08548 130.771 3.32508 129.473 2.02713C128.175 0.72918 126.415 0 124.579 0C122.743 0 120.983 0.72918 119.685 2.02713C118.387 3.32508 117.658 5.08548 117.658 6.92105V13.8421H48.4474V6.92105C48.4474 5.08548 47.7182 3.32508 46.4202 2.02713C45.1223 0.72918 43.3619 0 41.5263 0C39.6907 0 37.9303 0.72918 36.6324 2.02713C35.3344 3.32508 34.6053 5.08548 34.6053 6.92105V13.8421H13.8421C10.1722 13.8463 6.65388 15.306 4.0589 17.901C1.46391 20.496 0.00419708 24.0143 0 27.6842V166.105C0.00419708 169.775 1.46391 173.293 4.0589 175.888C6.65388 178.483 10.1722 179.943 13.8421 179.947H152.263C155.933 179.943 159.451 178.483 162.046 175.888C164.641 173.293 166.101 169.775 166.105 166.105V27.6842C166.101 24.0143 164.641 20.496 162.046 17.901C159.451 15.306 155.933 13.8463 152.263 13.8421ZM13.8421 27.6842H34.6053V34.6053C34.6053 36.4408 35.3344 38.2012 36.6324 39.4992C37.9303 40.7971 39.6907 41.5263 41.5263 41.5263C43.3619 41.5263 45.1223 40.7971 46.4202 39.4992C47.7182 38.2012 48.4474 36.4408 48.4474 34.6053V27.6842H117.658V34.6053C117.658 36.4408 118.387 38.2012 119.685 39.4992C120.983 40.7971 122.743 41.5263 124.579 41.5263C126.415 41.5263 128.175 40.7971 129.473 39.4992C130.771 38.2012 131.5 36.4408 131.5 34.6053V27.6842H152.263L152.265 55.3684H13.8421V27.6842ZM152.263 166.105H13.8421V69.2105H152.266L152.272 166.105H152.263ZM83.0526 128.037C83.0527 132.142 81.8356 136.156 79.5552 139.57C77.2748 142.984 74.0334 145.645 70.2409 147.217C66.4484 148.79 62.2748 149.202 58.2478 148.403C54.2209 147.604 50.5212 145.629 47.6165 142.727C46.3177 141.43 45.5875 139.67 45.5865 137.835C45.5854 135.999 46.3136 134.238 47.6108 132.939C48.9079 131.641 50.6679 130.911 52.5035 130.909C54.3391 130.908 56.0999 131.637 57.3986 132.934C58.2038 133.738 59.1948 134.331 60.284 134.661C61.3731 134.991 62.5268 135.047 63.6428 134.824C64.7589 134.602 65.8028 134.107 66.6822 133.385C67.5616 132.663 68.2493 131.735 68.6845 130.683C69.1197 129.632 69.2888 128.489 69.177 127.357C69.0652 126.224 68.6759 125.137 68.0435 124.191C67.4111 123.245 66.5552 122.469 65.5516 121.933C64.5479 121.396 63.4275 121.116 62.2895 121.116C60.9858 121.116 59.7086 120.748 58.605 120.054C57.5014 119.36 56.6163 118.368 56.0515 117.193C55.4867 116.018 55.2653 114.708 55.4128 113.412C55.5602 112.117 56.0705 110.89 56.8849 109.872L61.7314 103.813H51.9079C50.0723 103.813 48.3119 103.084 47.014 101.786C45.716 100.488 44.9868 98.7278 44.9868 96.8922C44.9868 95.0566 45.716 93.2962 47.014 91.9983C48.3119 90.7003 50.0723 89.9712 51.9079 89.9712H76.1316C77.4353 89.9711 78.7124 90.3393 79.816 91.0332C80.9196 91.7272 81.8048 92.7188 82.3696 93.8938C82.9343 95.0688 83.1557 96.3794 83.0083 97.6747C82.8608 98.97 82.3505 100.197 81.5361 101.215L73.8636 110.806C76.6911 112.704 79.0082 115.269 80.6107 118.274C82.2131 121.278 83.0518 124.631 83.0526 128.037ZM117.658 96.8922V141.879C117.658 143.715 116.929 145.475 115.631 146.773C114.333 148.071 112.572 148.8 110.737 148.8C108.901 148.8 107.141 148.071 105.843 146.773C104.545 145.475 103.816 143.715 103.816 141.879V110.734L101.047 112.811C99.5787 113.912 97.7328 114.385 95.9156 114.125C94.0984 113.866 92.4589 112.895 91.3576 111.426C90.2563 109.958 89.7835 108.112 90.0431 106.295C90.3028 104.477 91.2737 102.838 92.7423 101.737L106.584 91.355C107.613 90.584 108.835 90.1145 110.115 89.9991C111.396 89.8838 112.683 90.1272 113.832 90.702C114.982 91.2768 115.948 92.1604 116.624 93.2537C117.3 94.3471 117.658 95.6069 117.658 96.8922Z" fill="black"/>
</svg>
