<?xml version="1.0" standalone="no"?>
<!DOCTYPE svg PUBLIC "-//W3C//DTD SVG 20010904//EN"
 "http://www.w3.org/TR/2001/REC-SVG-20010904/DTD/svg10.dtd">
<svg version="1.0" xmlns="http://www.w3.org/2000/svg"
 width="16.000000pt" height="16.000000pt" viewBox="0 0 16.000000 16.000000"
 preserveAspectRatio="xMidYMid meet">

<g transform="translate(0.000000,16.000000) scale(0.100000,-0.100000)"
fill="#000000" stroke="none">
<path d="M60 115 c-8 -10 -21 -13 -37 -9 -23 6 -25 5 -18 -17 22 -69 22 -69
75 -69 53 0 53 0 75 69 7 22 5 23 -18 17 -16 -4 -29 -1 -37 9 -16 19 -24 19
-40 0z m40 -19 c6 -8 19 -12 27 -9 13 5 15 2 10 -11 -4 -10 -7 -22 -7 -27 0
-5 -22 -9 -50 -9 -27 0 -50 4 -50 9 0 5 -3 17 -7 27 -5 13 -3 16 10 11 8 -3
21 1 27 9 16 18 24 18 40 0z"/>
</g>
</svg>
