<svg width="167" height="167" viewBox="0 0 167 167" fill="none" xmlns="http://www.w3.org/2000/svg">
    <path fill-rule="evenodd" clip-rule="evenodd" d="M120.698 108.778L166.105 154.185L154.185 166.105L108.778 120.698C97.3596 129.574 83.0118 134.859 67.4296 134.859C30.1893 134.859 0 104.67 0 67.4296C0 30.1893 30.1893 0 67.4296 0C104.67 0 134.859 30.1893 134.859 67.4296C134.859 83.0118 129.574 97.3596 120.698 108.778ZM67.4296 118.002C95.3598 118.002 118.002 95.3598 118.002 67.4296C118.002 39.4993 95.3598 16.8574 67.4296 16.8574C39.4993 16.8574 16.8574 39.4993 16.8574 67.4296C16.8574 95.3598 39.4993 118.002 67.4296 118.002Z" fill="black"/>
</svg>
