<svg width="167" height="167" viewBox="0 0 167 167" fill="none" xmlns="http://www.w3.org/2000/svg">
    <path d="M162.942 90.2788C160.833 92.3875 158.292 93.4419 155.318 93.4419C152.344 93.4419 149.83 92.4146 147.775 90.3599L145.342 87.9267V155.894C145.342 158.705 144.342 161.138 142.341 163.193C140.341 165.248 137.88 166.275 134.961 166.275H103.816V119.558C103.816 118.152 103.302 116.936 102.275 115.908C101.247 114.881 100.031 114.367 98.625 114.367H67.4803C66.0744 114.367 64.8578 114.881 63.8305 115.908C62.8031 116.936 62.2895 118.152 62.2895 119.558V166.275H31.1447C28.2249 166.275 25.7647 165.248 23.7641 163.193C21.7635 161.138 20.7632 158.705 20.7632 155.894V87.9267L18.33 90.3599C16.2753 92.4146 13.761 93.4419 10.7871 93.4419C7.81322 93.4419 5.2719 92.3875 3.16314 90.2788C1.05438 88.17 0 85.6287 0 82.6548C0 79.6809 1.02734 77.1666 3.08203 75.112L75.1042 3.08976C77.2671 0.926927 79.9165 -0.100417 83.0526 0.00772439C86.1887 -0.100417 88.8382 0.926927 91.001 3.08976L163.023 75.112C165.078 77.1666 166.105 79.6809 166.105 82.6548C166.105 85.6287 165.051 88.17 162.942 90.2788Z" fill="black"/>
</svg>
