<?xml version="1.0" standalone="no"?>
<!DOCTYPE svg PUBLIC "-//W3C//DTD SVG 20010904//EN"
 "http://www.w3.org/TR/2001/REC-SVG-20010904/DTD/svg10.dtd">
<svg version="1.0" xmlns="http://www.w3.org/2000/svg"
 width="16.000000pt" height="16.000000pt" viewBox="0 0 16.000000 16.000000"
 preserveAspectRatio="xMidYMid meet">

<g transform="translate(0.000000,16.000000) scale(0.100000,-0.100000)"
fill="#000000" stroke="none">
<path d="M4 146 c-3 -7 -4 -42 -2 -77 l3 -64 61 -3 c46 -2 62 0 61 10 -1 30 4
49 11 44 4 -2 8 4 8 15 0 12 -4 15 -10 9 -17 -17 -48 -12 -44 8 2 9 12 17 24
16 16 0 19 5 16 28 -4 27 -6 28 -63 28 -41 0 -61 -4 -65 -14z m13 -18 c-3 -8
-6 -5 -6 6 -1 11 2 17 5 13 3 -3 4 -12 1 -19z m103 8 c0 -7 -9 -16 -20 -19
-12 -3 -20 -14 -20 -27 0 -13 8 -24 20 -27 36 -9 21 -23 -25 -23 l-45 0 0 55
0 55 45 0 c32 0 45 -4 45 -14z m-103 -83 c-3 -10 -5 -4 -5 12 0 17 2 24 5 18
2 -7 2 -21 0 -30z m93 -33 c0 -5 -22 -10 -50 -10 -27 0 -50 5 -50 10 0 6 23
10 50 10 28 0 50 -4 50 -10z"/>
</g>
</svg>
